<svg width="248" height="31" viewBox="0 0 248 31" fill="none" xmlns="http://www.w3.org/2000/svg">
<path d="M30.9255 14.9446H34.594C34.594 16.154 35.5615 17.5045 37.3755 17.5045C39.1896 17.5045 40.2781 16.2346 40.2781 14.3399V3.97946H43.9466V14.3399C43.9466 18.2704 41.3262 20.8101 37.3755 20.8101C33.4249 20.8101 30.9658 18.2099 30.9255 14.9446ZM54.3427 20.8101C49.2431 20.8101 45.4739 17.1618 45.4739 12.1831C45.4739 7.2045 49.2431 3.55617 54.3427 3.55617C59.4423 3.55617 63.2116 7.2045 63.2116 12.1831C63.2116 17.1618 59.4423 20.8101 54.3427 20.8101ZM54.3427 17.5045C57.3259 17.5045 59.5431 15.2671 59.5431 12.1831C59.5431 9.07905 57.3259 6.86184 54.3427 6.86184C51.3596 6.86184 49.1424 9.07905 49.1424 12.1831C49.1424 15.2671 51.3596 17.5045 54.3427 17.5045ZM64.9884 20.407V3.97946H72.1237C75.7721 3.97946 77.828 5.87417 77.828 8.87749C77.828 10.0466 77.0419 11.3769 75.9132 11.8002C77.4854 12.3041 78.594 13.836 78.594 15.4283C78.594 18.472 76.4171 20.407 72.7284 20.407H64.9884ZM68.6568 10.6311H71.9625C73.3533 10.6311 74.1596 10.0264 74.1596 8.87749C74.1596 7.72857 73.3533 7.10371 71.9625 7.10371H68.6568V10.6311ZM68.6568 17.2827H72.5672C74.0185 17.2827 74.9255 16.6377 74.9255 15.4283C74.9255 14.219 74.0185 13.5739 72.5672 13.5739H68.6568V17.2827ZM93.7416 20.8101C88.642 20.8101 84.8727 17.1618 84.8727 12.1831C84.8727 7.2045 88.642 3.55617 93.7416 3.55617C98.8412 3.55617 102.61 7.2045 102.61 12.1831C102.61 17.1618 98.8412 20.8101 93.7416 20.8101ZM93.7416 17.5045C96.7247 17.5045 98.9419 15.2671 98.9419 12.1831C98.9419 9.07905 96.7247 6.86184 93.7416 6.86184C90.7584 6.86184 88.5412 9.07905 88.5412 12.1831C88.5412 15.2671 90.7584 17.5045 93.7416 17.5045ZM104.387 20.407V3.97946H116.441V7.2045H108.056V10.9334H115.514V14.1182H108.056V20.407H104.387ZM123.304 20.407V3.97946H130.44C134.088 3.97946 136.144 5.87417 136.144 8.87749C136.144 10.0466 135.358 11.3769 134.229 11.8002C135.801 12.3041 136.91 13.836 136.91 15.4283C136.91 18.472 134.733 20.407 131.044 20.407H123.304ZM126.973 10.6311H130.279C131.669 10.6311 132.476 10.0264 132.476 8.87749C132.476 7.72857 131.669 7.10371 130.279 7.10371H126.973V10.6311ZM126.973 17.2827H130.883C132.334 17.2827 133.242 16.6377 133.242 15.4283C133.242 14.219 132.334 13.5739 130.883 13.5739H126.973V17.2827ZM152.697 20.407H148.444L145.259 15.2268H142.337V20.407H138.668V3.97946H145.279C149.452 3.97946 151.891 6.19667 151.891 9.60312C151.891 11.8606 150.823 13.5941 148.888 14.5011L152.697 20.407ZM142.337 7.22465V11.9816H145.118C147.053 11.9816 148.222 11.1552 148.222 9.60312C148.222 8.05107 147.053 7.22465 145.118 7.22465H142.337ZM161.959 20.8101C156.859 20.8101 153.09 17.1618 153.09 12.1831C153.09 7.2045 156.859 3.55617 161.959 3.55617C167.058 3.55617 170.828 7.2045 170.828 12.1831C170.828 17.1618 167.058 20.8101 161.959 20.8101ZM161.959 17.5045C164.942 17.5045 167.159 15.2671 167.159 12.1831C167.159 9.07905 164.942 6.86184 161.959 6.86184C158.976 6.86184 156.758 9.07905 156.758 12.1831C156.758 15.2671 158.976 17.5045 161.959 17.5045ZM185.281 3.97946V7.22465H179.939V20.407H176.271V7.22465H170.929V3.97946H185.281ZM197.771 3.97946H201.439V20.407H197.771V13.7352H190.515V20.407H186.846V3.97946H190.515V10.49H197.771V3.97946ZM203.942 20.407V3.97946H216.157V7.16418H207.611V10.5102H215.451V13.6949H207.611V17.2223H216.338V20.407H203.942ZM232.429 20.407H228.176L224.992 15.2268H222.069V20.407H218.4V3.97946H225.012C229.184 3.97946 231.623 6.19667 231.623 9.60312C231.623 11.8606 230.555 13.5941 228.62 14.5011L232.429 20.407ZM222.069 7.22465V11.9816H224.851C226.786 11.9816 227.955 11.1552 227.955 9.60312C227.955 8.05107 226.786 7.22465 224.851 7.22465H222.069ZM239.957 3.57633C243.626 3.57633 246.367 5.8137 246.548 8.93795H242.759C242.537 7.50685 241.469 6.64012 239.715 6.64012C238.002 6.64012 237.054 7.32544 237.054 8.3131C237.054 9.54265 238.324 9.96594 241.529 10.6311C245.319 11.4172 246.609 13.2918 246.609 15.7508C246.609 18.8953 243.646 20.8101 239.977 20.8101C235.926 20.8101 232.963 18.6131 232.801 15.1058H236.571C236.772 16.678 238.143 17.7262 240.239 17.7262C241.731 17.7262 242.839 16.9804 242.839 15.9121C242.839 14.6019 241.731 14.0779 238.808 13.5336C235.24 12.8685 233.305 11.397 233.305 8.3131C233.305 5.3501 236.248 3.57633 239.957 3.57633Z" fill="#222222"/>
<g clip-path="url(#clip0_82_928)">
<path d="M13.5522 25.1075C20.4846 25.1075 26.1044 19.4877 26.1044 12.5553C26.1044 5.62289 20.4846 0.00307465 13.5522 0.00307465C6.61981 0.00307465 1 5.62289 1 12.5553C1 19.4877 6.61981 25.1075 13.5522 25.1075Z" fill="#212121"/>
<path d="M17.1748 19.9859H14.0752V13.6445H17.1748C18.7614 13.6445 20.0475 14.9305 20.0475 16.5171V17.1132C20.0475 18.6999 18.7614 19.9859 17.1748 19.9859Z" fill="#212121"/>
<path d="M17.1748 19.9859H14.0752V13.6445H17.1748C18.7614 13.6445 20.0475 14.9305 20.0475 16.5171V17.1132C20.0475 18.6999 18.7614 19.9859 17.1748 19.9859Z" fill="#212121"/>
</g>
<g filter="url(#filter0_d_82_928)">
<rect x="8" y="5" width="5.57228" height="14.7502" fill="white"/>
<rect x="14" y="14.5056" width="5.57228" height="5.2445" fill="white"/>
</g>
<defs>
<filter id="filter0_d_82_928" x="0" y="0" width="27.5723" height="30.7502" filterUnits="userSpaceOnUse" color-interpolation-filters="sRGB">
<feFlood flood-opacity="0" result="BackgroundImageFix"/>
<feColorMatrix in="SourceAlpha" type="matrix" values="0 0 0 0 0 0 0 0 0 0 0 0 0 0 0 0 0 0 127 0" result="hardAlpha"/>
<feOffset dy="3"/>
<feGaussianBlur stdDeviation="4"/>
<feComposite in2="hardAlpha" operator="out"/>
<feColorMatrix type="matrix" values="0 0 0 0 0 0 0 0 0 0 0 0 0 0 0 0 0 0 0.25 0"/>
<feBlend mode="normal" in2="BackgroundImageFix" result="effect1_dropShadow_82_928"/>
<feBlend mode="normal" in="SourceGraphic" in2="effect1_dropShadow_82_928" result="shape"/>
</filter>
<clipPath id="clip0_82_928">
<rect width="25.104" height="25.104" fill="white" transform="translate(1)"/>
</clipPath>
</defs>
</svg>
