<svg width="13" height="18" viewBox="0 0 13 18" fill="none" xmlns="http://www.w3.org/2000/svg">
<path d="M5.46094 12.001C5.46094 14.8704 3.13508 17.1963 0.265625 17.1963H0L0 2.77246H5.46094V12.001ZM9.64453 10.3271C11.3632 10.3271 12.7559 11.7208 12.7559 13.4395V14.085C12.7562 15.8035 11.3631 17.1963 9.64453 17.1963H6.16797L6.16797 10.3271H9.64453ZM8.55469 2.77246C10.2732 2.77246 11.6668 4.16487 11.667 5.88379V6.53027C11.6668 8.24825 10.2732 9.6416 8.55469 9.6416H6.16797V2.77246L8.55469 2.77246ZM7.21191 0C7.78785 0.000166929 8.25474 0.467031 8.25488 1.04297C8.25488 1.61903 7.78794 2.08675 7.21191 2.08691C6.63575 2.08691 6.16797 1.61913 6.16797 1.04297C6.16811 0.466928 6.63584 0 7.21191 0Z" fill="white"/>
</svg>
