<svg width="33" height="58" viewBox="0 0 33 58" fill="none" xmlns="http://www.w3.org/2000/svg">
<g clip-path="url(#clip0_85_577)">
<path d="M8.44957 5.27012C7.85957 4.49012 7.98957 3.37012 8.24957 2.61012C8.50957 1.76012 9.37957 1.13012 9.80957 0.700117C9.84957 0.660117 9.85957 0.650117 9.87957 0.630117C9.92957 0.580117 9.99957 0.510117 10.0596 0.440117C10.1196 0.360117 10.1796 0.280117 10.2096 0.220117C10.2396 0.160117 10.2496 0.120117 10.2496 0.120117C10.2496 0.120117 10.2796 0.140117 10.3196 0.180117C10.4096 0.260117 10.5696 0.400117 10.7296 0.590117C10.7696 0.640117 10.8196 0.700117 10.8596 0.760117C10.8996 0.810117 10.9296 0.860117 10.9696 0.910117C11.3496 1.48012 11.5996 2.27012 11.7896 3.11012C11.9296 3.85012 11.9496 4.95012 11.3796 5.58012C11.3396 5.62012 11.2996 5.66012 11.2596 5.70012C11.2096 5.75012 11.1596 5.79012 11.1096 5.82012C10.9196 5.95012 10.7096 6.03012 10.4596 6.05012C10.2996 6.06012 10.9996 7.72012 10.8496 7.70012C10.6896 7.69012 9.94957 6.85012 9.58957 6.15012C9.50957 5.98012 9.21957 5.85012 9.06957 5.77012C8.92957 5.70012 8.79957 5.61012 8.67957 5.51012C8.63957 5.47012 8.59957 5.43012 8.55957 5.39012C8.51957 5.35012 8.47957 5.30012 8.44957 5.26012V5.27012Z" fill="white"/>
<path d="M5.92937 10.68C5.00937 10.06 4.63937 8.88 4.60938 7.92C4.60938 6.87 5.45937 5.78 5.84937 5.02C5.88937 4.96 5.89937 4.93 5.91937 4.9C5.96937 4.81 6.02938 4.69 6.08938 4.56C6.14937 4.42 6.18937 4.28 6.20937 4.17C6.22937 4.07 6.23937 4 6.23937 4C6.23937 4 6.28937 4.03 6.36937 4.09C6.51937 4.2 6.79937 4.4 7.07937 4.66C7.15937 4.74 7.22937 4.81 7.30937 4.89C7.36937 4.96 7.43937 5.03 7.49937 5.1C8.19937 5.89 8.74938 6.95 9.17938 7.92C9.56938 8.8 9.61938 9.85 9.17938 10.52C9.14937 10.56 9.10938 10.61 9.07937 10.65C9.03937 10.7 8.98937 10.74 8.93937 10.78C8.76937 10.93 8.55938 11.02 8.30938 11.08C8.17938 11.12 9.13937 12.34 8.97937 12.34C8.80937 12.35 7.94937 11.83 7.42937 11.3C7.29937 11.17 6.95937 11.1 6.76937 11.05C6.59937 11.01 6.42937 10.95 6.26937 10.88C6.20937 10.85 6.14937 10.82 6.09937 10.79C6.03937 10.76 5.98937 10.72 5.92937 10.69V10.68Z" fill="white"/>
<path d="M4.36019 16.5301C3.32019 16.0101 2.61018 14.7501 2.48019 13.7201C2.31019 12.5801 2.80018 11.1901 3.12018 10.3101C3.12018 10.3101 3.12019 10.2901 3.14019 10.2601C3.14019 10.2401 3.16019 10.2001 3.18019 10.1601C3.22019 10.0601 3.27018 9.91012 3.30018 9.77012C3.34018 9.61012 3.36018 9.44012 3.36018 9.32012C3.36018 9.20012 3.35018 9.12012 3.35018 9.12012C3.35018 9.12012 3.40018 9.15012 3.49019 9.19012C3.66018 9.28012 3.97019 9.46012 4.29018 9.70012C4.38019 9.77012 4.47019 9.84012 4.57019 9.92012C4.65019 9.99012 4.72019 10.0501 4.80019 10.1201C5.63019 10.8801 6.29018 11.9301 6.96019 12.9301C7.55019 13.8401 7.85018 14.9901 7.50019 15.7801C7.48019 15.8301 7.46019 15.8901 7.43018 15.9401C7.40018 16.0001 7.37018 16.0601 7.33018 16.1101C7.20018 16.3001 7.02018 16.4401 6.79018 16.5501C6.67019 16.6201 7.92019 17.7801 7.77018 17.8101C7.61019 17.8501 6.63019 17.4301 5.98019 16.9301C5.82018 16.8101 5.47019 16.7901 5.27018 16.7701C5.09018 16.7501 4.91018 16.7201 4.74018 16.6701C4.68018 16.6501 4.61019 16.6301 4.55019 16.6001C4.49019 16.5701 4.42019 16.5501 4.36019 16.5201V16.5301Z" fill="white"/>
<path d="M3.80004 22.7802C2.58004 22.4102 1.75004 21.2102 1.33004 20.1502C1.10004 19.5702 1.04004 18.8902 1.04004 18.2402C1.09004 17.5902 1.21004 16.9702 1.25004 16.4702C1.25004 16.4702 1.25004 16.4402 1.25004 16.4102C1.25004 16.3802 1.25004 16.3502 1.26004 16.3002C1.27004 16.1802 1.29004 16.0202 1.29004 15.8602C1.29004 15.6802 1.27004 15.5002 1.25004 15.3702C1.22004 15.2402 1.19004 15.1602 1.19004 15.1602C1.19004 15.1602 1.25004 15.1802 1.35004 15.2202C1.54004 15.2902 1.88004 15.4302 2.26004 15.6302C2.36004 15.6902 2.47004 15.7502 2.58004 15.8202C2.67004 15.8802 2.76004 15.9402 2.85004 15.9902C3.83004 16.6602 4.77004 17.6702 5.57004 18.6002C6.35004 19.4602 6.96004 20.6202 6.79004 21.5002C6.78004 21.5602 6.76004 21.6202 6.75004 21.6702C6.73004 21.7402 6.70004 21.8002 6.67004 21.8602C6.56004 22.0802 6.42004 22.2502 6.22004 22.4002C6.11004 22.4902 7.66004 23.4902 7.51004 23.5502C7.36004 23.6202 6.28004 23.3402 5.51004 22.9302C5.32004 22.8302 4.96004 22.8602 4.76004 22.8802C4.58004 22.8902 4.39004 22.8802 4.20004 22.8602C4.13004 22.8602 4.06004 22.8402 3.99004 22.8202C3.92004 22.8002 3.85004 22.7902 3.78004 22.7602L3.80004 22.7802Z" fill="white"/>
<path d="M4.33977 29.2198C3.07977 28.9998 1.90977 27.8798 1.21977 26.8098C0.809766 26.2298 0.649766 25.5098 0.549766 24.8198C0.439766 24.1198 0.399766 23.4398 0.319766 22.8998C0.319766 22.8998 0.319766 22.8698 0.319766 22.8398C0.319766 22.8098 0.319766 22.7698 0.309766 22.7198C0.299766 22.5898 0.269766 22.4198 0.229766 22.2498C0.179766 22.0598 0.149766 21.8698 0.0997656 21.7298C0.0497656 21.5998 0.00976562 21.5098 0.00976562 21.5098C0.00976562 21.5098 0.0697656 21.5198 0.179766 21.5498C0.379766 21.5998 0.749766 21.6998 1.15977 21.8598C1.26977 21.9098 1.38977 21.9598 1.50977 22.0098C1.60977 22.0598 1.70977 22.1098 1.80977 22.1598C2.94977 22.7298 4.14977 23.6798 5.18977 24.5398C6.08977 25.3398 7.02977 26.4598 7.09977 27.4098C7.09977 27.4698 7.09977 27.5398 7.09977 27.5998C7.09977 27.6698 7.08977 27.7498 7.07977 27.8098C7.02977 28.0498 6.91976 28.2598 6.73977 28.4498C6.61977 28.5698 8.44977 29.3598 8.32977 29.4398C8.19977 29.5298 7.01977 29.4198 6.12977 29.1198C5.89977 29.0398 5.55977 29.1298 5.35977 29.1798C5.17977 29.2198 4.98977 29.2398 4.78977 29.2498C4.71977 29.2498 4.64977 29.2498 4.56977 29.2498C4.49977 29.2498 4.41977 29.2298 4.34977 29.2198H4.33977Z" fill="white"/>
<path d="M6.13969 35.4799C4.82969 35.4799 3.37969 34.5499 2.45969 33.5899C1.52969 32.5099 1.09969 30.8399 0.759687 29.7599C0.759687 29.7599 0.759687 29.7299 0.739688 29.6999C0.739688 29.6699 0.719687 29.6299 0.709687 29.5799C0.679687 29.4499 0.629687 29.2799 0.559687 29.0999C0.489688 28.9099 0.399687 28.7199 0.319687 28.5899C0.239687 28.4599 0.179688 28.3799 0.179688 28.3799C0.179688 28.3799 0.249688 28.3799 0.359688 28.3899C0.569687 28.4099 0.959688 28.4499 1.40969 28.5499C1.53969 28.5799 1.66969 28.6199 1.79969 28.6499C1.90969 28.6799 2.01969 28.7199 2.12969 28.7499C2.74969 28.9499 3.36969 29.2499 4.01969 29.5799C4.68969 29.9099 5.34969 30.2699 5.97969 30.6199C6.53969 30.9399 7.09969 31.3599 7.52969 31.8099C7.95969 32.2599 8.36969 32.7199 8.49969 33.1999C8.51969 33.2599 8.52969 33.3299 8.54969 33.3899C8.55969 33.4599 8.56969 33.5399 8.56969 33.6099C8.56969 33.8599 8.51969 34.0899 8.37969 34.3099C8.30969 34.4399 10.2497 34.9499 10.1597 35.0399C10.0497 35.1499 8.80969 35.2599 7.89969 35.0899C7.66969 35.0499 7.32969 35.1999 7.13969 35.2799C6.95969 35.3499 6.77969 35.4099 6.57969 35.4399C6.50969 35.4499 6.43969 35.4599 6.35969 35.4699C6.27969 35.4699 6.20969 35.4699 6.12969 35.4699L6.13969 35.4799Z" fill="white"/>
<path d="M9.26957 41.6301C7.94957 41.8301 6.24957 41.1501 5.16957 40.3001C4.57957 39.8301 4.08957 39.1801 3.67957 38.5201C3.46957 38.1901 3.27957 37.8601 3.10957 37.5501C2.95957 37.2301 2.80957 36.9301 2.67957 36.6601C2.67957 36.6601 2.66957 36.6301 2.64957 36.6001C2.63957 36.5701 2.61957 36.5301 2.58957 36.4801C2.52957 36.3601 2.43957 36.1801 2.33957 36.0201C2.22957 35.8401 2.09957 35.6601 1.98957 35.5401C1.88957 35.4201 1.80957 35.3501 1.80957 35.3501C1.80957 35.3501 1.87957 35.3501 1.98957 35.3401C2.20957 35.3301 2.60957 35.3101 3.07957 35.3401C3.20957 35.3501 3.34957 35.3701 3.48957 35.3801C3.60957 35.4001 3.72957 35.4101 3.84957 35.4301C5.16957 35.6601 6.63957 36.2601 8.07957 36.7601C9.35957 37.2301 10.6296 38.1001 11.1596 38.9701C11.1896 39.0301 11.2196 39.0901 11.2496 39.1501C11.2796 39.2201 11.2996 39.2901 11.3196 39.3701C11.3796 39.6201 11.3696 39.8601 11.2796 40.1001C11.2396 40.2501 13.3096 40.4401 13.2396 40.5301C13.1596 40.6601 11.9296 40.9801 10.9696 40.9501C10.7296 40.9501 10.4196 41.1501 10.2496 41.2601C10.0896 41.3601 9.90957 41.4501 9.72957 41.5101C9.65957 41.5301 9.58957 41.5601 9.51957 41.5701C9.43957 41.5901 9.36957 41.6001 9.28957 41.6201L9.26957 41.6301Z" fill="white"/>
<path d="M13.6197 47.2101C12.3497 47.6701 10.5397 47.3301 9.27969 46.7101C8.59969 46.3601 7.97969 45.8201 7.43969 45.2501C7.16969 44.9701 6.90969 44.6801 6.66969 44.4101C6.44969 44.1201 6.23969 43.8601 6.05969 43.6201C6.05969 43.6201 6.03969 43.5901 6.01969 43.5701C5.99969 43.5401 5.96969 43.5101 5.93969 43.4701C5.84969 43.3601 5.72969 43.2101 5.59969 43.0601C5.44969 42.9001 5.28969 42.7501 5.14969 42.6501C5.01969 42.5501 4.92969 42.5001 4.92969 42.5001C4.92969 42.5001 4.98969 42.4801 5.09969 42.4501C5.30969 42.3901 5.70969 42.3001 6.17969 42.2501C6.30969 42.2401 6.44969 42.2201 6.59969 42.2101C6.71969 42.2101 6.83969 42.2001 6.95969 42.1901C8.30969 42.1601 9.89969 42.4601 11.4397 42.6701C12.7997 42.8901 14.2497 43.4701 14.9597 44.2301C15.0097 44.2801 15.0497 44.3401 15.0797 44.3901C15.1197 44.4601 15.1597 44.5201 15.1997 44.5901C15.3097 44.8201 15.3497 45.0601 15.3097 45.3201C15.2997 45.3901 15.8297 45.3801 16.3397 45.3601C16.8597 45.3301 17.3897 45.2701 17.3497 45.3501C17.2997 45.4901 16.1297 46.0601 15.1697 46.2201C14.9297 46.2601 14.6697 46.5301 14.5197 46.6701C14.3797 46.8001 14.2197 46.9201 14.0497 47.0201C13.9897 47.0601 13.9197 47.0901 13.8497 47.1301C13.7797 47.1601 13.7097 47.1901 13.6297 47.2201L13.6197 47.2101Z" fill="white"/>
<path d="M19.5093 52.39C18.2293 53.12 16.1993 53.05 14.6193 52.7C13.7793 52.47 12.9793 52.02 12.2293 51.54C11.8593 51.3 11.4993 51.05 11.1693 50.81C10.8593 50.55 10.5593 50.32 10.2993 50.1C10.2993 50.1 10.2693 50.08 10.2393 50.05C10.2093 50.03 10.1693 49.99 10.1293 49.96C10.0093 49.86 9.8293 49.72 9.6493 49.6C9.4493 49.46 9.2293 49.33 9.0593 49.25C8.8993 49.17 8.7793 49.13 8.7793 49.13C8.7793 49.13 8.8493 49.1 8.9593 49.06C9.1793 48.97 9.5793 48.82 10.0793 48.7C10.2193 48.67 10.3693 48.63 10.5193 48.6C10.6493 48.58 10.7793 48.55 10.9093 48.53C11.6393 48.41 12.4593 48.37 13.2993 48.36C14.1593 48.33 15.0693 48.3 15.9093 48.3C16.6793 48.29 17.4893 48.39 18.2493 48.53C19.0193 48.65 19.7093 48.87 20.1793 49.2C20.2393 49.24 20.2993 49.29 20.3593 49.34C20.4293 49.4 20.4793 49.46 20.5393 49.51C20.7293 49.72 20.8193 49.95 20.8493 50.22C20.8793 50.36 23.1593 49.63 23.1093 49.78C23.0893 49.94 21.9993 50.7 20.9593 51.11C20.6993 51.21 20.4893 51.52 20.3593 51.7C20.2393 51.86 20.0993 52.01 19.9393 52.15C19.8793 52.2 19.8093 52.25 19.7493 52.3C19.6793 52.35 19.6093 52.4 19.5293 52.44L19.5093 52.39Z" fill="white"/>
<path d="M27.47 56.4801C26.87 56.9801 26.02 57.3601 25.09 57.6201C24.16 57.8701 23.18 57.9001 22.29 57.8901C20.3 57.9001 18.34 56.7801 16.92 56.2301C16.91 56.2301 16.88 56.2101 16.84 56.2001C16.8 56.1801 16.75 56.1601 16.69 56.1301C16.54 56.0501 16.32 55.9401 16.09 55.8401C15.84 55.7301 15.57 55.6401 15.37 55.5801C15.17 55.5301 15.04 55.5001 15.04 55.5001C15.04 55.5001 15.1 55.4601 15.21 55.4001C15.42 55.2801 15.81 55.0601 16.32 54.8501C16.46 54.7901 16.61 54.7401 16.77 54.6801C16.9 54.6401 17.03 54.5901 17.17 54.5401C18.66 54.0801 20.71 53.6501 22.49 53.3301C23.3 53.1801 24.25 53.0101 25.09 53.0001C25.94 52.9701 26.71 53.0801 27.32 53.2301C27.4 53.2601 27.48 53.2801 27.55 53.3101C27.64 53.3501 27.72 53.3901 27.79 53.4301C28.05 53.5801 28.22 53.7701 28.32 54.0201C28.4 54.1601 30.6 52.9701 30.61 53.0701C30.63 53.2301 29.66 54.2901 28.67 54.8801C28.42 55.0401 28.28 55.3901 28.18 55.5901C28.09 55.7701 27.98 55.9501 27.84 56.1201C27.79 56.1801 27.73 56.2501 27.67 56.3101C27.61 56.3701 27.54 56.4301 27.47 56.4901V56.4801Z" fill="white"/>
<path d="M13.6195 9.95005C14.5895 10.03 15.2895 9.52005 15.7295 9.12005C16.2195 8.67005 16.3095 7.88005 16.4595 7.44005C16.4695 7.40005 16.4795 7.38005 16.4795 7.37005C16.4995 7.32005 16.5195 7.25005 16.5495 7.19005C16.5795 7.12005 16.6195 7.06005 16.6595 7.02005C16.6895 6.98005 16.7295 6.97005 16.7295 6.97005C16.7295 6.97005 16.6995 6.95005 16.6495 6.92005C16.5495 6.86005 16.3595 6.75005 16.1395 6.66005C16.0795 6.64005 16.0095 6.61005 15.9495 6.58005C15.8895 6.56005 15.8395 6.54005 15.7795 6.52005C15.1495 6.33005 14.3795 6.32005 13.5495 6.44005C12.8195 6.55005 11.8395 7.03005 11.6595 7.84005C11.6495 7.89005 11.6395 7.95005 11.6295 8.00005C11.6295 8.06005 11.6195 8.13005 11.6195 8.19005C11.6195 8.41005 11.6795 8.62005 11.8095 8.83005C11.8795 8.92005 10.1695 9.36005 10.2795 9.48005C10.3895 9.59005 11.5095 9.63005 12.2495 9.53005C12.4395 9.50005 12.7095 9.65005 12.8695 9.73005C13.0095 9.80005 13.1595 9.85005 13.3095 9.89005C13.3695 9.90005 13.4195 9.91005 13.4795 9.93005C13.5395 9.93005 13.5895 9.94005 13.6495 9.95005H13.6195Z" fill="white"/>
<path d="M12.1002 14.5102C12.6502 14.5402 13.1402 14.4202 13.5602 14.2502C13.9902 14.0802 14.3802 13.8602 14.6502 13.6302C14.9502 13.3802 15.1102 13.0202 15.2202 12.6402C15.3202 12.2602 15.3802 11.8802 15.5102 11.6102C15.5302 11.5602 15.5302 11.5402 15.5402 11.5202C15.5602 11.4502 15.6002 11.3602 15.6502 11.2802C15.7002 11.1902 15.7702 11.1102 15.8302 11.0602C15.8902 11.0102 15.9402 10.9802 15.9402 10.9802C15.9402 10.9802 15.8902 10.9602 15.8002 10.9202C15.6202 10.8502 15.3102 10.7402 14.9402 10.6502C14.8402 10.6302 14.7302 10.6002 14.6202 10.5802C14.5302 10.5602 14.4402 10.5502 14.3502 10.5302C13.3602 10.3802 12.1902 10.5002 11.2502 10.8102C10.3902 11.0702 9.58021 11.8002 9.53021 12.5902C9.53021 12.6402 9.53021 12.7002 9.53021 12.7502C9.53021 12.8102 9.54021 12.8702 9.56021 12.9302C9.62021 13.1502 9.74021 13.3402 9.92021 13.5302C10.0202 13.6202 8.54021 14.0702 8.67021 14.1702C8.80021 14.2702 9.82021 14.2802 10.5402 14.1702C10.7202 14.1402 11.0402 14.2702 11.2302 14.3302C11.4002 14.3902 11.5702 14.4402 11.7402 14.4702C11.8002 14.4802 11.8702 14.4902 11.9302 14.5002C11.9902 14.5002 12.0602 14.5102 12.1202 14.5202L12.1002 14.5102Z" fill="white"/>
<path d="M11.3199 19.2902C12.4699 19.1102 13.4199 18.4202 13.9299 17.8402C14.4499 17.1802 14.5099 16.2202 14.6799 15.6102C14.6899 15.5602 14.6999 15.5302 14.6999 15.5102C14.7199 15.4402 14.7399 15.3402 14.7799 15.2502C14.8199 15.1502 14.8899 15.0502 14.9399 14.9902C14.9899 14.9302 15.0399 14.8902 15.0399 14.8902C15.0399 14.8902 14.9799 14.8802 14.8799 14.8602C14.6899 14.8302 14.3399 14.7702 13.9499 14.7502C13.8399 14.7502 13.7299 14.7502 13.6099 14.7402C13.5099 14.7402 13.4199 14.7402 13.3199 14.7402C12.2499 14.7802 11.1099 15.1502 10.0899 15.6502C9.12988 16.0802 8.46988 17.0202 8.48988 17.8602C8.48988 17.9202 8.48988 17.9702 8.50988 18.0202C8.51988 18.0802 8.53988 18.1502 8.55988 18.2002C8.62988 18.4102 8.75988 18.5902 8.94988 18.7402C9.01988 18.8102 7.56988 19.6002 7.71988 19.6902C7.86988 19.7602 8.90988 19.5502 9.63988 19.2702C9.81988 19.2002 10.1699 19.2702 10.3599 19.2902C10.5399 19.3202 10.7199 19.3302 10.8999 19.3302C10.9699 19.3302 11.0299 19.3302 11.0999 19.3302C11.1699 19.3302 11.2299 19.3102 11.2999 19.3102L11.3199 19.2902Z" fill="white"/>
<path d="M11.41 24.2801C12.55 23.8701 13.41 22.9801 13.84 22.2801C14.37 21.5101 14.31 20.5201 14.38 19.8601C14.38 19.8001 14.38 19.7801 14.38 19.7501C14.38 19.6701 14.39 19.5701 14.44 19.4701C14.48 19.3601 14.55 19.2501 14.6 19.1801C14.66 19.1101 14.71 19.0601 14.71 19.0601C14.71 19.0601 14.65 19.0601 14.54 19.0601C14.34 19.0601 13.97 19.0601 13.56 19.1101C13.44 19.1301 13.32 19.1401 13.2 19.1601C13.1 19.1801 13 19.2001 12.89 19.2201C11.77 19.4601 10.7 20.0601 9.71999 20.7601C9.27999 21.0801 8.88999 21.5001 8.60999 21.9601C8.34999 22.4201 8.25999 22.9101 8.33999 23.3301C8.34999 23.3901 8.36999 23.4401 8.37999 23.4901C8.39999 23.5501 8.42999 23.6101 8.45999 23.6701C8.55999 23.8701 8.71999 24.0301 8.93999 24.1501C9.04999 24.2001 7.60999 25.3201 7.75999 25.3801C7.90999 25.4201 8.95999 24.9901 9.68999 24.5601C9.86999 24.4501 10.23 24.4501 10.43 24.4401C10.61 24.4401 10.8 24.4101 10.98 24.3701C11.05 24.3501 11.11 24.3401 11.18 24.3201L11.38 24.2601L11.41 24.2801Z" fill="white"/>
<path d="M12.3899 29.2799C12.9299 28.9499 13.3799 28.4999 13.7399 28.0399C13.9199 27.8099 14.0699 27.5799 14.2099 27.3499C14.3599 27.1199 14.4999 26.8899 14.5999 26.6899C14.8299 26.2299 14.8899 25.7499 14.8899 25.2999C14.8899 25.0699 14.8699 24.8599 14.8599 24.6499C14.8599 24.4399 14.8799 24.2399 14.8999 24.0699C14.8999 24.0099 14.8999 23.9899 14.8999 23.9599C14.8999 23.8799 14.9199 23.7699 14.9399 23.6599C14.9699 23.5399 15.0199 23.4199 15.0699 23.3299C15.1199 23.2399 15.1599 23.1899 15.1599 23.1899L14.9899 23.2199C14.7899 23.2599 14.4199 23.3299 14.0099 23.4599C13.8999 23.4999 13.7799 23.5399 13.6499 23.5799C13.5499 23.6199 13.4499 23.6599 13.3499 23.6999C12.2699 24.1599 11.0999 25.0099 10.2699 25.9299C9.50985 26.7499 8.87985 28.0699 9.19985 28.9299C9.21985 28.9899 9.23985 29.0399 9.26985 29.0899C9.29985 29.1499 9.33985 29.2099 9.36985 29.2699C9.50985 29.4599 9.68985 29.5999 9.91985 29.6799C10.0399 29.7099 8.77985 31.1999 8.93985 31.2299C9.09985 31.2399 10.0699 30.5699 10.7399 29.9599C10.9099 29.8099 11.2599 29.7299 11.4599 29.6799C11.6399 29.6299 11.8199 29.5699 11.9999 29.4999L12.1899 29.4099C12.2499 29.3699 12.3199 29.3399 12.3799 29.2999L12.3899 29.2799Z" fill="white"/>
<path d="M14.1698 34.0198C14.6498 33.5798 15.0098 33.0398 15.2798 32.5098C15.5798 31.9698 15.8198 31.4198 15.9498 30.9598C16.0998 30.4498 16.0698 29.9598 15.9898 29.5098C15.9698 29.0398 15.8798 28.6098 15.8598 28.2498C15.8598 28.1898 15.8598 28.1698 15.8498 28.1298C15.8498 28.0498 15.8298 27.9298 15.8498 27.8198C15.8498 27.6898 15.8798 27.5598 15.9198 27.4598C15.9498 27.3698 15.9898 27.2998 15.9898 27.2998C15.9898 27.2998 15.9298 27.3198 15.8298 27.3598C15.6298 27.4298 15.2798 27.5798 14.8898 27.7798C14.7798 27.8398 14.6698 27.8998 14.5598 27.9698C14.4698 28.0298 14.3798 28.0898 14.2798 28.1398C13.2698 28.7998 12.2998 29.8598 11.5398 30.9798C10.9098 31.9598 10.5898 33.3798 10.9598 34.2398C10.9898 34.2998 11.0198 34.3498 11.0598 34.3898C11.0998 34.4498 11.1498 34.4998 11.1898 34.5498C11.3598 34.7198 11.5598 34.8198 11.8098 34.8598C11.9298 34.8598 10.9598 36.6198 11.1198 36.6198C11.2798 36.5998 12.1198 35.7298 12.6698 34.9898C12.8098 34.7998 13.1398 34.6598 13.3298 34.5698C13.4998 34.4898 13.6698 34.3898 13.8298 34.2798C13.8898 34.2398 13.9498 34.1898 14.0098 34.1498C14.0698 34.0998 14.1298 34.0498 14.1798 33.9998L14.1698 34.0198Z" fill="white"/>
<path d="M16.9201 38.6499C17.3001 38.1099 17.5301 37.4899 17.7001 36.8899C17.9001 36.2699 18.0001 35.6599 18.0401 35.1699C18.1001 34.6099 17.9201 34.1399 17.8101 33.6499C17.6901 33.1699 17.5201 32.7399 17.4201 32.3799C17.4001 32.3199 17.3901 32.2899 17.3801 32.2599C17.3501 32.1799 17.3201 32.0599 17.3101 31.9399C17.2901 31.8099 17.2901 31.6699 17.3101 31.5599C17.3301 31.4499 17.3601 31.3799 17.3601 31.3799C17.3601 31.3799 17.3001 31.4099 17.2101 31.4699C17.0301 31.5799 16.6901 31.7999 16.3601 32.0799C16.2701 32.1599 16.1701 32.2499 16.0701 32.3299C15.9901 32.4099 15.9101 32.4799 15.8301 32.5599C14.9701 33.4299 14.2401 34.6899 13.7101 35.9999C13.2601 37.1499 13.2701 38.6599 13.8101 39.4699C13.8401 39.5299 13.8901 39.5699 13.9301 39.6099C13.9801 39.6599 14.0401 39.7099 14.1001 39.7499C14.3001 39.8899 14.5201 39.9599 14.7801 39.9599C14.9001 39.9399 14.3201 41.9399 14.4801 41.9099C14.6301 41.8599 15.2701 40.7999 15.6501 39.9399C15.7401 39.7199 16.0401 39.5099 16.2101 39.3899C16.3601 39.2699 16.5101 39.1399 16.6401 38.9999C16.6901 38.9399 16.7401 38.8899 16.7901 38.8299C16.8401 38.7699 16.8801 38.7099 16.9301 38.6499H16.9201Z" fill="white"/>
<path d="M20.6099 42.7399C20.8799 42.1299 20.9999 41.4599 21.0499 40.8399C21.1199 40.1799 21.1199 39.5599 21.0699 39.0499C21.0199 38.4799 20.7699 38.0399 20.5699 37.5799C20.3699 37.1299 20.1199 36.7299 19.9699 36.3899C19.9399 36.3299 19.9299 36.3099 19.9099 36.2799C19.8699 36.1999 19.8199 36.0899 19.7799 35.9799C19.7399 35.8499 19.7099 35.7099 19.7099 35.6099C19.7099 35.4999 19.7299 35.4199 19.7299 35.4199C19.7299 35.4199 19.6799 35.4599 19.5999 35.5399C19.4399 35.6899 19.1499 35.9699 18.8799 36.3099C18.7999 36.4099 18.7199 36.5099 18.6399 36.6199C18.5799 36.7099 18.5099 36.7999 18.4499 36.8999C17.7599 37.9299 17.2799 39.3199 16.9899 40.7299C16.7699 41.9499 17.0399 43.4599 17.7299 44.1699C17.7799 44.2099 17.8299 44.2499 17.8799 44.2899C17.9399 44.3299 17.9999 44.3699 18.0699 44.3999C18.2899 44.4999 18.5199 44.5299 18.7699 44.4799C18.8799 44.4399 18.6899 46.5399 18.8399 46.4799C18.9799 46.3999 19.4099 45.2199 19.6199 44.2899C19.6699 44.0499 19.9299 43.7899 20.0699 43.6299C20.1999 43.4899 20.3199 43.3299 20.4199 43.1599C20.4599 43.0999 20.4899 43.0299 20.5299 42.9699C20.5599 42.8999 20.5999 42.8299 20.6299 42.7599L20.6099 42.7399Z" fill="white"/>
<path d="M25.5695 46.2201C25.7995 44.7901 25.4095 43.2801 25.1295 42.1501C24.9595 41.5401 24.6395 41.0701 24.3195 40.6301C24.0295 40.1601 23.7195 39.7701 23.4995 39.4201C23.4595 39.3601 23.4395 39.3401 23.4195 39.3101C23.3695 39.2301 23.2995 39.1201 23.2395 39.0001C23.1795 38.8601 23.1195 38.7301 23.1095 38.6001C23.0895 38.4801 23.0895 38.3901 23.0895 38.3901C23.0895 38.3901 23.0495 38.4501 22.9795 38.5401C22.8495 38.7301 22.6195 39.0801 22.4095 39.5001C22.3495 39.6201 22.2995 39.7401 22.2395 39.8701C22.1995 39.9801 22.1495 40.0901 22.1095 40.2001C21.6395 41.4201 21.4295 43.0601 21.4895 44.6101C21.5295 45.2901 21.6995 46.0301 21.9695 46.6901C22.0995 47.0201 22.2595 47.3301 22.4395 47.6001C22.6295 47.8601 22.8495 48.0501 23.0695 48.2001C23.1295 48.2401 23.1895 48.2701 23.2495 48.3001C23.3195 48.3401 23.3895 48.3701 23.4595 48.3901C23.7095 48.4701 23.9395 48.4701 24.1695 48.3701C24.2695 48.3101 24.6195 50.6501 24.7795 50.5201C24.8995 50.4101 24.9795 49.1101 24.9595 48.0401C24.9595 47.7701 25.1395 47.4501 25.2295 47.2501C25.3195 47.0701 25.3995 46.8801 25.4595 46.6801C25.4795 46.6001 25.4995 46.5301 25.5195 46.4501C25.5395 46.3701 25.5495 46.2901 25.5695 46.2101V46.2201Z" fill="white"/>
<path d="M31.8899 48.8502C31.7799 48.1402 31.5299 47.3602 31.2299 46.6402C30.9299 45.9202 30.5799 45.2802 30.2499 44.7802C29.9099 44.1902 29.4799 43.6902 29.0499 43.3102C28.8399 43.1102 28.6099 42.9502 28.4199 42.7602C28.2299 42.5702 28.0599 42.3902 27.9099 42.2202C27.8599 42.1702 27.8399 42.1402 27.8099 42.1202C27.7399 42.0502 27.6399 41.9402 27.5599 41.8202C27.4599 41.6902 27.3799 41.5402 27.3299 41.4202C27.2799 41.3002 27.2499 41.2202 27.2499 41.2202C27.2499 41.2202 27.2299 41.2802 27.1799 41.4002C27.0999 41.6202 26.9699 42.0102 26.8699 42.5002C26.8399 42.6402 26.8199 42.7802 26.7899 42.9302C26.7699 43.0502 26.7599 43.1802 26.7399 43.3002C26.6599 44.0002 26.6699 44.7802 26.7699 45.6002C26.8599 46.4202 27.0799 47.1902 27.3299 47.9902C27.5599 48.6902 27.9099 49.5102 28.3999 50.0802C28.8799 50.6702 29.4399 51.1602 29.9699 51.3902C30.0399 51.4202 30.1099 51.4502 30.1799 51.4702C30.2599 51.5002 30.3399 51.5202 30.4199 51.5302C30.6899 51.5802 30.9299 51.4902 31.1399 51.3502C31.2199 51.2602 32.3299 53.4902 32.4499 53.3702C32.5399 53.2402 32.2099 51.8602 31.8499 50.8202C31.7599 50.5602 31.8499 50.1902 31.8799 49.9702C31.9199 49.7702 31.9399 49.5702 31.9399 49.3502C31.9399 49.2702 31.9399 49.1902 31.9399 49.1102C31.9399 49.0302 31.9199 48.9402 31.9099 48.8602L31.8899 48.8502Z" fill="white"/>
<path d="M12.2196 2.61C11.8996 1.82 12.6296 0.71 13.2296 0.53C13.8896 0.33 14.6196 0.53 15.5996 0.31C15.5996 0.31 15.6296 0.31 15.6596 0.3C15.6896 0.3 15.7196 0.29 15.7696 0.28C15.8896 0.26 16.0496 0.23 16.2196 0.19C16.4096 0.15 16.5896 0.11 16.7296 0.07C16.8596 0.03 16.9496 0 16.9496 0C16.9496 0 16.9496 0.05 16.9396 0.12C16.9196 0.26 16.8896 0.5 16.8396 0.73C16.8296 0.79 16.8196 0.86 16.8096 0.92C16.8096 0.97 16.8096 1.03 16.8096 1.08C16.7896 1.67 16.7096 2.37 16.2896 3.15C15.9596 3.89 15.3096 3.96 14.6596 3.86C14.6196 3.86 14.5696 3.85 14.5296 3.84C14.4796 3.84 14.4296 3.82 14.3696 3.81C14.1896 3.77 14.0196 3.71 13.7996 3.66C13.6796 3.63 12.7996 4.91 12.7196 4.85C12.6596 4.81 12.6696 4.56 12.7196 4.28C12.7896 4.01 12.8896 3.69 12.9696 3.48C13.0096 3.37 12.8196 3.24 12.6896 3.14C12.5696 3.05 12.4596 2.96 12.3696 2.85C12.3396 2.81 12.3096 2.77 12.2796 2.73C12.2496 2.69 12.2296 2.64 12.2096 2.59L12.2196 2.61Z" fill="white"/>
</g>
<defs>
<clipPath id="clip0_85_577">
<rect width="32.45" height="57.89" fill="white"/>
</clipPath>
</defs>
</svg>
