<svg width="33" height="58" viewBox="0 0 33 58" fill="none" xmlns="http://www.w3.org/2000/svg">
<g clip-path="url(#clip0_85_601)">
<path d="M24.0006 5.27012C24.5906 4.49012 24.4606 3.37012 24.2006 2.61012C23.9406 1.76012 23.0706 1.13012 22.6406 0.700117C22.6006 0.660117 22.5906 0.650117 22.5706 0.630117C22.5206 0.580117 22.4506 0.510117 22.3906 0.440117C22.3306 0.360117 22.2706 0.280117 22.2406 0.220117C22.2106 0.160117 22.2006 0.120117 22.2006 0.120117C22.2006 0.120117 22.1706 0.140117 22.1306 0.180117C22.0406 0.260117 21.8806 0.400117 21.7206 0.590117C21.6806 0.640117 21.6306 0.700117 21.5906 0.760117C21.5506 0.810117 21.5206 0.860117 21.4806 0.910117C21.1006 1.48012 20.8506 2.27012 20.6606 3.11012C20.5206 3.85012 20.5006 4.95012 21.0706 5.58012C21.1106 5.62012 21.1506 5.66012 21.1906 5.70012C21.2406 5.75012 21.2906 5.79012 21.3406 5.82012C21.5306 5.95012 21.7406 6.03012 21.9906 6.05012C22.1506 6.06012 21.4506 7.72012 21.6006 7.70012C21.7606 7.69012 22.5006 6.85012 22.8606 6.15012C22.9406 5.98012 23.2306 5.85012 23.3806 5.77012C23.5206 5.70012 23.6506 5.61012 23.7706 5.51012C23.8106 5.47012 23.8506 5.43012 23.8906 5.39012C23.9306 5.35012 23.9706 5.30012 24.0006 5.26012V5.27012Z" fill="white"/>
<path d="M26.5203 10.68C27.4403 10.06 27.8103 8.88 27.8403 7.92C27.8403 6.87 26.9903 5.78 26.6003 5.02C26.5603 4.96 26.5503 4.93 26.5303 4.9C26.4803 4.81 26.4203 4.69 26.3603 4.56C26.3003 4.42 26.2603 4.28 26.2403 4.17C26.2203 4.07 26.2103 4 26.2103 4C26.2103 4 26.1603 4.03 26.0803 4.09C25.9303 4.2 25.6503 4.4 25.3703 4.66C25.2903 4.74 25.2203 4.81 25.1403 4.89C25.0803 4.96 25.0103 5.03 24.9503 5.1C24.2503 5.89 23.7003 6.95 23.2703 7.92C22.8803 8.8 22.8303 9.85 23.2703 10.52C23.3003 10.56 23.3403 10.61 23.3703 10.65C23.4103 10.7 23.4603 10.74 23.5103 10.78C23.6803 10.93 23.8903 11.02 24.1403 11.08C24.2703 11.12 23.3103 12.34 23.4703 12.34C23.6403 12.35 24.5003 11.83 25.0203 11.3C25.1503 11.17 25.4903 11.1 25.6803 11.05C25.8503 11.01 26.0203 10.95 26.1803 10.88C26.2403 10.85 26.3003 10.82 26.3503 10.79C26.4103 10.76 26.4603 10.72 26.5203 10.69V10.68Z" fill="white"/>
<path d="M28.0905 16.5301C29.1305 16.0101 29.8405 14.7501 29.9705 13.7201C30.1405 12.5801 29.6505 11.1901 29.3305 10.3101C29.3305 10.3101 29.3305 10.2901 29.3105 10.2601C29.3105 10.2401 29.2905 10.2001 29.2705 10.1601C29.2305 10.0601 29.1805 9.91012 29.1505 9.77012C29.1105 9.61012 29.0905 9.44012 29.0905 9.32012C29.0905 9.20012 29.1005 9.12012 29.1005 9.12012C29.1005 9.12012 29.0505 9.15012 28.9605 9.19012C28.7905 9.28012 28.4805 9.46012 28.1605 9.70012C28.0705 9.77012 27.9805 9.84012 27.8805 9.92012C27.8005 9.99012 27.7305 10.0501 27.6505 10.1201C26.8205 10.8801 26.1605 11.9301 25.4905 12.9301C24.9005 13.8401 24.6005 14.9901 24.9505 15.7801C24.9705 15.8301 24.9905 15.8901 25.0205 15.9401C25.0505 16.0001 25.0805 16.0601 25.1205 16.1101C25.2505 16.3001 25.4305 16.4401 25.6605 16.5501C25.7805 16.6201 24.5305 17.7801 24.6805 17.8101C24.8405 17.8501 25.8205 17.4301 26.4705 16.9301C26.6305 16.8101 26.9805 16.7901 27.1805 16.7701C27.3605 16.7501 27.5405 16.7201 27.7105 16.6701C27.7705 16.6501 27.8405 16.6301 27.9005 16.6001C27.9605 16.5701 28.0305 16.5501 28.0905 16.5201V16.5301Z" fill="white"/>
<path d="M28.6506 22.7802C29.8706 22.4102 30.7006 21.2102 31.1206 20.1502C31.3506 19.5702 31.4106 18.8902 31.4106 18.2402C31.3606 17.5902 31.2406 16.9702 31.2006 16.4702C31.2006 16.4702 31.2006 16.4402 31.2006 16.4102C31.2006 16.3802 31.2006 16.3502 31.1906 16.3002C31.1806 16.1802 31.1606 16.0202 31.1606 15.8602C31.1606 15.6802 31.1806 15.5002 31.2006 15.3702C31.2306 15.2402 31.2606 15.1602 31.2606 15.1602C31.2606 15.1602 31.2006 15.1802 31.1006 15.2202C30.9106 15.2902 30.5706 15.4302 30.1906 15.6302C30.0906 15.6902 29.9806 15.7502 29.8706 15.8202C29.7806 15.8802 29.6906 15.9402 29.6006 15.9902C28.6206 16.6602 27.6806 17.6702 26.8806 18.6002C26.1006 19.4602 25.4906 20.6202 25.6606 21.5002C25.6706 21.5602 25.6906 21.6202 25.7006 21.6702C25.7206 21.7402 25.7506 21.8002 25.7806 21.8602C25.8906 22.0802 26.0306 22.2502 26.2306 22.4002C26.3406 22.4902 24.7906 23.4902 24.9406 23.5502C25.0906 23.6202 26.1706 23.3402 26.9406 22.9302C27.1306 22.8302 27.4906 22.8602 27.6906 22.8802C27.8706 22.8902 28.0606 22.8802 28.2506 22.8602C28.3206 22.8602 28.3906 22.8402 28.4606 22.8202C28.5306 22.8002 28.6006 22.7902 28.6706 22.7602L28.6506 22.7802Z" fill="white"/>
<path d="M28.1104 29.2198C29.3704 28.9998 30.5404 27.8798 31.2304 26.8098C31.6404 26.2298 31.8004 25.5098 31.9004 24.8198C32.0104 24.1198 32.0504 23.4398 32.1304 22.8998C32.1304 22.8998 32.1304 22.8698 32.1304 22.8398C32.1304 22.8098 32.1304 22.7698 32.1404 22.7198C32.1504 22.5898 32.1804 22.4198 32.2204 22.2498C32.2704 22.0598 32.3004 21.8698 32.3504 21.7298C32.4004 21.5998 32.4404 21.5098 32.4404 21.5098C32.4404 21.5098 32.3804 21.5198 32.2704 21.5498C32.0704 21.5998 31.7004 21.6998 31.2904 21.8598C31.1804 21.9098 31.0604 21.9598 30.9404 22.0098C30.8404 22.0598 30.7404 22.1098 30.6404 22.1598C29.5004 22.7298 28.3004 23.6798 27.2604 24.5398C26.3604 25.3398 25.4204 26.4598 25.3504 27.4098C25.3504 27.4698 25.3504 27.5398 25.3504 27.5998C25.3504 27.6698 25.3604 27.7498 25.3704 27.8098C25.4204 28.0498 25.5304 28.2598 25.7104 28.4498C25.8304 28.5698 24.0004 29.3598 24.1204 29.4398C24.2504 29.5298 25.4304 29.4198 26.3204 29.1198C26.5504 29.0398 26.8904 29.1298 27.0904 29.1798C27.2704 29.2198 27.4604 29.2398 27.6604 29.2498C27.7304 29.2498 27.8004 29.2498 27.8804 29.2498C27.9504 29.2498 28.0304 29.2298 28.1004 29.2198H28.1104Z" fill="white"/>
<path d="M26.3105 35.4799C27.6205 35.4799 29.0705 34.5499 29.9905 33.5899C30.9205 32.5099 31.3505 30.8399 31.6905 29.7599C31.6905 29.7599 31.6905 29.7299 31.7105 29.6999C31.7105 29.6699 31.7305 29.6299 31.7405 29.5799C31.7705 29.4499 31.8205 29.2799 31.8905 29.0999C31.9605 28.9099 32.0505 28.7199 32.1305 28.5899C32.2105 28.4599 32.2705 28.3799 32.2705 28.3799C32.2705 28.3799 32.2005 28.3799 32.0905 28.3899C31.8805 28.4099 31.4905 28.4499 31.0405 28.5499C30.9105 28.5799 30.7805 28.6199 30.6505 28.6499C30.5405 28.6799 30.4305 28.7199 30.3205 28.7499C29.7005 28.9499 29.0805 29.2499 28.4305 29.5799C27.7605 29.9099 27.1005 30.2699 26.4705 30.6199C25.9105 30.9399 25.3505 31.3599 24.9205 31.8099C24.4905 32.2599 24.0805 32.7199 23.9505 33.1999C23.9305 33.2599 23.9205 33.3299 23.9005 33.3899C23.8905 33.4599 23.8805 33.5399 23.8805 33.6099C23.8805 33.8599 23.9305 34.0899 24.0705 34.3099C24.1405 34.4399 22.2005 34.9499 22.2905 35.0399C22.4005 35.1499 23.6405 35.2599 24.5505 35.0899C24.7805 35.0499 25.1205 35.1999 25.3105 35.2799C25.4905 35.3499 25.6705 35.4099 25.8705 35.4399C25.9405 35.4499 26.0105 35.4599 26.0905 35.4699C26.1705 35.4699 26.2405 35.4699 26.3205 35.4699L26.3105 35.4799Z" fill="white"/>
<path d="M23.1806 41.6301C24.5006 41.8301 26.2006 41.1501 27.2806 40.3001C27.8706 39.8301 28.3606 39.1801 28.7706 38.5201C28.9806 38.1901 29.1706 37.8601 29.3406 37.5501C29.4906 37.2301 29.6406 36.9301 29.7706 36.6601C29.7706 36.6601 29.7806 36.6301 29.8006 36.6001C29.8106 36.5701 29.8306 36.5301 29.8606 36.4801C29.9206 36.3601 30.0106 36.1801 30.1106 36.0201C30.2206 35.8401 30.3506 35.6601 30.4606 35.5401C30.5606 35.4201 30.6406 35.3501 30.6406 35.3501C30.6406 35.3501 30.5706 35.3501 30.4606 35.3401C30.2406 35.3301 29.8406 35.3101 29.3706 35.3401C29.2406 35.3501 29.1006 35.3701 28.9606 35.3801C28.8406 35.4001 28.7206 35.4101 28.6006 35.4301C27.2806 35.6601 25.8106 36.2601 24.3706 36.7601C23.0906 37.2301 21.8206 38.1001 21.2906 38.9701C21.2606 39.0301 21.2306 39.0901 21.2006 39.1501C21.1706 39.2201 21.1506 39.2901 21.1306 39.3701C21.0706 39.6201 21.0806 39.8601 21.1706 40.1001C21.2106 40.2501 19.1406 40.4401 19.2106 40.5301C19.2906 40.6601 20.5206 40.9801 21.4806 40.9501C21.7206 40.9501 22.0306 41.1501 22.2006 41.2601C22.3606 41.3601 22.5406 41.4501 22.7206 41.5101C22.7906 41.5301 22.8606 41.5601 22.9306 41.5701C23.0106 41.5901 23.0806 41.6001 23.1606 41.6201L23.1806 41.6301Z" fill="white"/>
<path d="M18.8305 47.2101C20.1005 47.6701 21.9105 47.3301 23.1705 46.7101C23.8505 46.3601 24.4705 45.8201 25.0105 45.2501C25.2805 44.9701 25.5405 44.6801 25.7805 44.4101C26.0005 44.1201 26.2105 43.8601 26.3905 43.6201C26.3905 43.6201 26.4105 43.5901 26.4305 43.5701C26.4505 43.5401 26.4805 43.5101 26.5105 43.4701C26.6005 43.3601 26.7205 43.2101 26.8505 43.0601C27.0005 42.9001 27.1605 42.7501 27.3005 42.6501C27.4305 42.5501 27.5205 42.5001 27.5205 42.5001C27.5205 42.5001 27.4605 42.4801 27.3505 42.4501C27.1405 42.3901 26.7405 42.3001 26.2705 42.2501C26.1405 42.2401 26.0005 42.2201 25.8505 42.2101C25.7305 42.2101 25.6105 42.2001 25.4905 42.1901C24.1405 42.1601 22.5505 42.4601 21.0105 42.6701C19.6505 42.8901 18.2005 43.4701 17.4905 44.2301C17.4405 44.2801 17.4005 44.3401 17.3705 44.3901C17.3305 44.4601 17.2905 44.5201 17.2505 44.5901C17.1405 44.8201 17.1005 45.0601 17.1405 45.3201C17.1505 45.3901 16.6205 45.3801 16.1105 45.3601C15.5905 45.3301 15.0605 45.2701 15.1005 45.3501C15.1505 45.4901 16.3205 46.0601 17.2805 46.2201C17.5205 46.2601 17.7805 46.5301 17.9305 46.6701C18.0705 46.8001 18.2305 46.9201 18.4005 47.0201C18.4605 47.0601 18.5305 47.0901 18.6005 47.1301C18.6705 47.1601 18.7405 47.1901 18.8205 47.2201L18.8305 47.2101Z" fill="white"/>
<path d="M12.9404 52.39C14.2204 53.12 16.2504 53.05 17.8304 52.7C18.6704 52.47 19.4704 52.02 20.2204 51.54C20.5904 51.3 20.9504 51.05 21.2804 50.81C21.5904 50.55 21.8904 50.32 22.1504 50.1C22.1504 50.1 22.1804 50.08 22.2104 50.05C22.2404 50.03 22.2804 49.99 22.3204 49.96C22.4404 49.86 22.6204 49.72 22.8004 49.6C23.0004 49.46 23.2204 49.33 23.3904 49.25C23.5504 49.17 23.6704 49.13 23.6704 49.13C23.6704 49.13 23.6004 49.1 23.4904 49.06C23.2704 48.97 22.8704 48.82 22.3704 48.7C22.2304 48.67 22.0804 48.63 21.9304 48.6C21.8004 48.58 21.6704 48.55 21.5404 48.53C20.8104 48.41 19.9904 48.37 19.1504 48.36C18.2904 48.33 17.3804 48.3 16.5404 48.3C15.7704 48.29 14.9604 48.39 14.2004 48.53C13.4304 48.65 12.7404 48.87 12.2704 49.2C12.2104 49.24 12.1504 49.29 12.0904 49.34C12.0204 49.4 11.9704 49.46 11.9104 49.51C11.7204 49.72 11.6304 49.95 11.6004 50.22C11.5704 50.36 9.29041 49.63 9.34041 49.78C9.36041 49.94 10.4504 50.7 11.4904 51.11C11.7504 51.21 11.9604 51.52 12.0904 51.7C12.2104 51.86 12.3504 52.01 12.5104 52.15C12.5704 52.2 12.6404 52.25 12.7004 52.3C12.7704 52.35 12.8404 52.4 12.9204 52.44L12.9404 52.39Z" fill="white"/>
<path d="M4.98065 56.4801C5.58065 56.9801 6.43064 57.3601 7.36064 57.6201C8.29064 57.8701 9.27064 57.9001 10.1606 57.8901C12.1506 57.9001 14.1106 56.7801 15.5306 56.2301C15.5406 56.2301 15.5706 56.2101 15.6106 56.2001C15.6506 56.1801 15.7006 56.1601 15.7606 56.1301C15.9106 56.0501 16.1306 55.9401 16.3606 55.8401C16.6106 55.7301 16.8806 55.6401 17.0806 55.5801C17.2806 55.5301 17.4106 55.5001 17.4106 55.5001C17.4106 55.5001 17.3506 55.4601 17.2406 55.4001C17.0306 55.2801 16.6406 55.0601 16.1306 54.8501C15.9906 54.7901 15.8406 54.7401 15.6806 54.6801C15.5506 54.6401 15.4206 54.5901 15.2806 54.5401C13.7906 54.0801 11.7406 53.6501 9.96064 53.3301C9.15064 53.1801 8.20064 53.0101 7.36064 53.0001C6.51064 52.9701 5.74064 53.0801 5.13064 53.2301C5.05064 53.2601 4.97064 53.2801 4.90065 53.3101C4.81065 53.3501 4.73064 53.3901 4.66064 53.4301C4.40064 53.5801 4.23065 53.7701 4.13064 54.0201C4.05064 54.1601 1.85064 52.9701 1.84064 53.0701C1.82064 53.2301 2.79064 54.2901 3.78064 54.8801C4.03064 55.0401 4.17064 55.3901 4.27064 55.5901C4.36064 55.7701 4.47064 55.9501 4.61064 56.1201C4.66064 56.1801 4.72064 56.2501 4.78064 56.3101C4.84064 56.3701 4.91065 56.4301 4.98065 56.4901V56.4801Z" fill="white"/>
<path d="M18.8302 9.95005C17.8602 10.03 17.1602 9.52005 16.7202 9.12005C16.2302 8.67005 16.1402 7.88005 15.9902 7.44005C15.9802 7.40005 15.9702 7.38005 15.9702 7.37005C15.9502 7.32005 15.9302 7.25005 15.9002 7.19005C15.8702 7.12005 15.8302 7.06005 15.7902 7.02005C15.7602 6.98005 15.7202 6.97005 15.7202 6.97005C15.7202 6.97005 15.7502 6.95005 15.8002 6.92005C15.9002 6.86005 16.0902 6.75005 16.3102 6.66005C16.3702 6.64005 16.4402 6.61005 16.5002 6.58005C16.5602 6.56005 16.6102 6.54005 16.6702 6.52005C17.3002 6.33005 18.0702 6.32005 18.9002 6.44005C19.6302 6.55005 20.6102 7.03005 20.7902 7.84005C20.8002 7.89005 20.8102 7.95005 20.8202 8.00005C20.8202 8.06005 20.8302 8.13005 20.8302 8.19005C20.8302 8.41005 20.7702 8.62005 20.6402 8.83005C20.5702 8.92005 22.2802 9.36005 22.1702 9.48005C22.0602 9.59005 20.9402 9.63005 20.2002 9.53005C20.0102 9.50005 19.7402 9.65005 19.5802 9.73005C19.4402 9.80005 19.2902 9.85005 19.1402 9.89005C19.0802 9.90005 19.0302 9.91005 18.9702 9.93005C18.9102 9.93005 18.8602 9.94005 18.8002 9.95005H18.8302Z" fill="white"/>
<path d="M20.3505 14.5102C19.8005 14.5402 19.3105 14.4202 18.8905 14.2502C18.4605 14.0802 18.0705 13.8602 17.8005 13.6302C17.5005 13.3802 17.3405 13.0202 17.2305 12.6402C17.1305 12.2602 17.0705 11.8802 16.9405 11.6102C16.9205 11.5602 16.9205 11.5402 16.9105 11.5202C16.8905 11.4502 16.8505 11.3602 16.8005 11.2802C16.7505 11.1902 16.6805 11.1102 16.6205 11.0602C16.5605 11.0102 16.5105 10.9802 16.5105 10.9802C16.5105 10.9802 16.5605 10.9602 16.6505 10.9202C16.8305 10.8502 17.1405 10.7402 17.5105 10.6502C17.6105 10.6302 17.7205 10.6002 17.8305 10.5802C17.9205 10.5602 18.0105 10.5502 18.1005 10.5302C19.0905 10.3802 20.2605 10.5002 21.2005 10.8102C22.0605 11.0702 22.8705 11.8002 22.9205 12.5902C22.9205 12.6402 22.9205 12.7002 22.9205 12.7502C22.9205 12.8102 22.9105 12.8702 22.8905 12.9302C22.8305 13.1502 22.7105 13.3402 22.5305 13.5302C22.4305 13.6202 23.9105 14.0702 23.7805 14.1702C23.6505 14.2702 22.6305 14.2802 21.9105 14.1702C21.7305 14.1402 21.4105 14.2702 21.2205 14.3302C21.0505 14.3902 20.8805 14.4402 20.7105 14.4702C20.6505 14.4802 20.5805 14.4902 20.5205 14.5002C20.4605 14.5002 20.3905 14.5102 20.3305 14.5202L20.3505 14.5102Z" fill="white"/>
<path d="M21.1303 19.2902C19.9803 19.1102 19.0303 18.4202 18.5203 17.8402C18.0003 17.1802 17.9403 16.2202 17.7703 15.6102C17.7603 15.5602 17.7503 15.5302 17.7503 15.5102C17.7303 15.4402 17.7103 15.3402 17.6703 15.2502C17.6303 15.1502 17.5603 15.0502 17.5103 14.9902C17.4603 14.9302 17.4103 14.8902 17.4103 14.8902C17.4103 14.8902 17.4703 14.8802 17.5703 14.8602C17.7603 14.8302 18.1103 14.7702 18.5003 14.7502C18.6103 14.7502 18.7203 14.7502 18.8403 14.7402C18.9403 14.7402 19.0303 14.7402 19.1303 14.7402C20.2003 14.7802 21.3403 15.1502 22.3603 15.6502C23.3203 16.0802 23.9803 17.0202 23.9603 17.8602C23.9603 17.9202 23.9603 17.9702 23.9403 18.0202C23.9303 18.0802 23.9103 18.1502 23.8903 18.2002C23.8203 18.4102 23.6903 18.5902 23.5003 18.7402C23.4303 18.8102 24.8803 19.6002 24.7303 19.6902C24.5803 19.7602 23.5403 19.5502 22.8103 19.2702C22.6303 19.2002 22.2803 19.2702 22.0903 19.2902C21.9103 19.3202 21.7303 19.3302 21.5503 19.3302C21.4803 19.3302 21.4203 19.3302 21.3503 19.3302C21.2803 19.3302 21.2203 19.3102 21.1503 19.3102L21.1303 19.2902Z" fill="white"/>
<path d="M21.0402 24.2801C19.9002 23.8701 19.0402 22.9801 18.6102 22.2801C18.0802 21.5101 18.1402 20.5201 18.0702 19.8601C18.0702 19.8001 18.0702 19.7801 18.0702 19.7501C18.0702 19.6701 18.0602 19.5701 18.0102 19.4701C17.9702 19.3601 17.9002 19.2501 17.8502 19.1801C17.7902 19.1101 17.7402 19.0601 17.7402 19.0601C17.7402 19.0601 17.8002 19.0601 17.9102 19.0601C18.1102 19.0601 18.4802 19.0601 18.8902 19.1101C19.0102 19.1301 19.1302 19.1401 19.2502 19.1601C19.3502 19.1801 19.4502 19.2001 19.5602 19.2201C20.6802 19.4601 21.7502 20.0601 22.7302 20.7601C23.1702 21.0801 23.5602 21.5001 23.8402 21.9601C24.1002 22.4201 24.1902 22.9101 24.1102 23.3301C24.1002 23.3901 24.0802 23.4401 24.0702 23.4901C24.0502 23.5501 24.0202 23.6101 23.9902 23.6701C23.8902 23.8701 23.7302 24.0301 23.5102 24.1501C23.4002 24.2001 24.8402 25.3201 24.6902 25.3801C24.5402 25.4201 23.4902 24.9901 22.7602 24.5601C22.5802 24.4501 22.2202 24.4501 22.0202 24.4401C21.8402 24.4401 21.6502 24.4101 21.4702 24.3701C21.4002 24.3501 21.3402 24.3401 21.2702 24.3201L21.0702 24.2601L21.0402 24.2801Z" fill="white"/>
<path d="M20.0603 29.2799C19.5203 28.9499 19.0703 28.4999 18.7103 28.0399C18.5303 27.8099 18.3803 27.5799 18.2403 27.3499C18.0903 27.1199 17.9503 26.8899 17.8503 26.6899C17.6203 26.2299 17.5603 25.7499 17.5603 25.2999C17.5603 25.0699 17.5803 24.8599 17.5903 24.6499C17.5903 24.4399 17.5703 24.2399 17.5503 24.0699C17.5503 24.0099 17.5503 23.9899 17.5503 23.9599C17.5503 23.8799 17.5303 23.7699 17.5103 23.6599C17.4803 23.5399 17.4303 23.4199 17.3803 23.3299C17.3303 23.2399 17.2903 23.1899 17.2903 23.1899L17.4603 23.2199C17.6603 23.2599 18.0303 23.3299 18.4403 23.4599C18.5503 23.4999 18.6703 23.5399 18.8003 23.5799C18.9003 23.6199 19.0003 23.6599 19.1003 23.6999C20.1803 24.1599 21.3503 25.0099 22.1803 25.9299C22.9403 26.7499 23.5703 28.0699 23.2503 28.9299C23.2303 28.9899 23.2103 29.0399 23.1803 29.0899C23.1503 29.1499 23.1103 29.2099 23.0803 29.2699C22.9403 29.4599 22.7603 29.5999 22.5303 29.6799C22.4103 29.7099 23.6703 31.1999 23.5103 31.2299C23.3503 31.2399 22.3803 30.5699 21.7103 29.9599C21.5403 29.8099 21.1903 29.7299 20.9903 29.6799C20.8103 29.6299 20.6303 29.5699 20.4503 29.4999L20.2603 29.4099C20.2003 29.3699 20.1303 29.3399 20.0703 29.2999L20.0603 29.2799Z" fill="white"/>
<path d="M18.2804 34.0198C17.8004 33.5798 17.4404 33.0398 17.1704 32.5098C16.8704 31.9698 16.6304 31.4198 16.5004 30.9598C16.3504 30.4498 16.3804 29.9598 16.4604 29.5098C16.4804 29.0398 16.5704 28.6098 16.5904 28.2498C16.5904 28.1898 16.5904 28.1698 16.6004 28.1298C16.6004 28.0498 16.6204 27.9298 16.6004 27.8198C16.6004 27.6898 16.5704 27.5598 16.5304 27.4598C16.5004 27.3698 16.4604 27.2998 16.4604 27.2998C16.4604 27.2998 16.5204 27.3198 16.6204 27.3598C16.8204 27.4298 17.1704 27.5798 17.5604 27.7798C17.6704 27.8398 17.7804 27.8998 17.8904 27.9698C17.9804 28.0298 18.0704 28.0898 18.1704 28.1398C19.1804 28.7998 20.1504 29.8598 20.9104 30.9798C21.5404 31.9598 21.8604 33.3798 21.4904 34.2398C21.4604 34.2998 21.4304 34.3498 21.3904 34.3898C21.3504 34.4498 21.3004 34.4998 21.2604 34.5498C21.0904 34.7198 20.8904 34.8198 20.6404 34.8598C20.5204 34.8598 21.4904 36.6198 21.3304 36.6198C21.1704 36.5998 20.3304 35.7298 19.7804 34.9898C19.6404 34.7998 19.3104 34.6598 19.1204 34.5698C18.9504 34.4898 18.7804 34.3898 18.6204 34.2798C18.5604 34.2398 18.5004 34.1898 18.4404 34.1498C18.3804 34.0998 18.3204 34.0498 18.2704 33.9998L18.2804 34.0198Z" fill="white"/>
<path d="M15.5306 38.6499C15.1506 38.1099 14.9206 37.4899 14.7506 36.8899C14.5506 36.2699 14.4506 35.6599 14.4106 35.1699C14.3506 34.6099 14.5306 34.1399 14.6406 33.6499C14.7606 33.1699 14.9306 32.7399 15.0306 32.3799C15.0506 32.3199 15.0606 32.2899 15.0706 32.2599C15.1006 32.1799 15.1306 32.0599 15.1406 31.9399C15.1606 31.8099 15.1606 31.6699 15.1406 31.5599C15.1206 31.4499 15.0906 31.3799 15.0906 31.3799C15.0906 31.3799 15.1506 31.4099 15.2406 31.4699C15.4206 31.5799 15.7606 31.7999 16.0906 32.0799C16.1806 32.1599 16.2806 32.2499 16.3806 32.3299C16.4606 32.4099 16.5406 32.4799 16.6206 32.5599C17.4806 33.4299 18.2106 34.6899 18.7406 35.9999C19.1906 37.1499 19.1806 38.6599 18.6406 39.4699C18.6106 39.5299 18.5606 39.5699 18.5206 39.6099C18.4706 39.6599 18.4106 39.7099 18.3506 39.7499C18.1506 39.8899 17.9306 39.9599 17.6706 39.9599C17.5506 39.9399 18.1306 41.9399 17.9706 41.9099C17.8206 41.8599 17.1806 40.7999 16.8006 39.9399C16.7106 39.7199 16.4106 39.5099 16.2406 39.3899C16.0906 39.2699 15.9406 39.1399 15.8106 38.9999C15.7606 38.9399 15.7106 38.8899 15.6606 38.8299C15.6106 38.7699 15.5706 38.7099 15.5206 38.6499H15.5306Z" fill="white"/>
<path d="M11.8403 42.7399C11.5703 42.1299 11.4503 41.4599 11.4003 40.8399C11.3303 40.1799 11.3303 39.5599 11.3803 39.0499C11.4303 38.4799 11.6803 38.0399 11.8803 37.5799C12.0803 37.1299 12.3303 36.7299 12.4803 36.3899C12.5103 36.3299 12.5203 36.3099 12.5403 36.2799C12.5803 36.1999 12.6303 36.0899 12.6703 35.9799C12.7103 35.8499 12.7403 35.7099 12.7403 35.6099C12.7403 35.4999 12.7203 35.4199 12.7203 35.4199C12.7203 35.4199 12.7703 35.4599 12.8503 35.5399C13.0103 35.6899 13.3003 35.9699 13.5703 36.3099C13.6503 36.4099 13.7303 36.5099 13.8103 36.6199C13.8703 36.7099 13.9403 36.7999 14.0003 36.8999C14.6903 37.9299 15.1703 39.3199 15.4603 40.7299C15.6803 41.9499 15.4103 43.4599 14.7203 44.1699C14.6703 44.2099 14.6203 44.2499 14.5703 44.2899C14.5103 44.3299 14.4503 44.3699 14.3803 44.3999C14.1603 44.4999 13.9303 44.5299 13.6803 44.4799C13.5703 44.4399 13.7603 46.5399 13.6103 46.4799C13.4703 46.3999 13.0403 45.2199 12.8303 44.2899C12.7803 44.0499 12.5203 43.7899 12.3803 43.6299C12.2503 43.4899 12.1303 43.3299 12.0303 43.1599C11.9903 43.0999 11.9603 43.0299 11.9203 42.9699C11.8903 42.8999 11.8503 42.8299 11.8203 42.7599L11.8403 42.7399Z" fill="white"/>
<path d="M6.8802 46.2201C6.6502 44.7901 7.0402 43.2801 7.3202 42.1501C7.4902 41.5401 7.8102 41.0701 8.1302 40.6301C8.4202 40.1601 8.7302 39.7701 8.9502 39.4201C8.9902 39.3601 9.0102 39.3401 9.0302 39.3101C9.0802 39.2301 9.1502 39.1201 9.2102 39.0001C9.2702 38.8601 9.3302 38.7301 9.3402 38.6001C9.3602 38.4801 9.3602 38.3901 9.3602 38.3901C9.3602 38.3901 9.4002 38.4501 9.4702 38.5401C9.6002 38.7301 9.8302 39.0801 10.0402 39.5001C10.1002 39.6201 10.1502 39.7401 10.2102 39.8701C10.2502 39.9801 10.3002 40.0901 10.3402 40.2001C10.8102 41.4201 11.0202 43.0601 10.9602 44.6101C10.9202 45.2901 10.7502 46.0301 10.4802 46.6901C10.3502 47.0201 10.1902 47.3301 10.0102 47.6001C9.8202 47.8601 9.6002 48.0501 9.3802 48.2001C9.3202 48.2401 9.2602 48.2701 9.2002 48.3001C9.1302 48.3401 9.0602 48.3701 8.9902 48.3901C8.7402 48.4701 8.5102 48.4701 8.2802 48.3701C8.1802 48.3101 7.8302 50.6501 7.6702 50.5201C7.5502 50.4101 7.4702 49.1101 7.4902 48.0401C7.4902 47.7701 7.3102 47.4501 7.2202 47.2501C7.1302 47.0701 7.0502 46.8801 6.9902 46.6801C6.9702 46.6001 6.9502 46.5301 6.9302 46.4501C6.9102 46.3701 6.9002 46.2901 6.8802 46.2101V46.2201Z" fill="white"/>
<path d="M0.560339 48.8502C0.670339 48.1402 0.920339 47.3602 1.22034 46.6402C1.52034 45.9202 1.87034 45.2802 2.20034 44.7802C2.54034 44.1902 2.97034 43.6902 3.40034 43.3102C3.61034 43.1102 3.84034 42.9502 4.03034 42.7602C4.22034 42.5702 4.39034 42.3902 4.54034 42.2202C4.59034 42.1702 4.61034 42.1402 4.64034 42.1202C4.71034 42.0502 4.81034 41.9402 4.89034 41.8202C4.99034 41.6902 5.07034 41.5402 5.12034 41.4202C5.17034 41.3002 5.20034 41.2202 5.20034 41.2202C5.20034 41.2202 5.22034 41.2802 5.27034 41.4002C5.35034 41.6202 5.48034 42.0102 5.58034 42.5002C5.61034 42.6402 5.63034 42.7802 5.66034 42.9302C5.68034 43.0502 5.69034 43.1802 5.71034 43.3002C5.79034 44.0002 5.78034 44.7802 5.68034 45.6002C5.59034 46.4202 5.37034 47.1902 5.12034 47.9902C4.89034 48.6902 4.54034 49.5102 4.05034 50.0802C3.57034 50.6702 3.01034 51.1602 2.48034 51.3902C2.41034 51.4202 2.34034 51.4502 2.27034 51.4702C2.19034 51.5002 2.11034 51.5202 2.03034 51.5302C1.76034 51.5802 1.52034 51.4902 1.31034 51.3502C1.23034 51.2602 0.120337 53.4902 0.000337601 53.3702C-0.0896626 53.2402 0.240338 51.8602 0.600338 50.8202C0.690338 50.5602 0.600339 50.1902 0.570339 49.9702C0.530339 49.7702 0.510338 49.5702 0.510338 49.3502C0.510338 49.2702 0.510338 49.1902 0.510338 49.1102C0.510338 49.0302 0.530338 48.9402 0.540339 48.8602L0.560339 48.8502Z" fill="white"/>
<path d="M20.2306 2.61C20.5506 1.82 19.8206 0.71 19.2206 0.53C18.5606 0.33 17.8306 0.53 16.8506 0.31C16.8506 0.31 16.8206 0.31 16.7906 0.3C16.7606 0.3 16.7306 0.29 16.6806 0.28C16.5606 0.26 16.4006 0.23 16.2306 0.19C16.0406 0.15 15.8606 0.11 15.7206 0.07C15.5906 0.03 15.5006 0 15.5006 0C15.5006 0 15.5006 0.05 15.5106 0.12C15.5306 0.26 15.5606 0.5 15.6106 0.73C15.6206 0.79 15.6306 0.86 15.6406 0.92C15.6406 0.97 15.6406 1.03 15.6406 1.08C15.6606 1.67 15.7406 2.37 16.1606 3.15C16.4906 3.89 17.1406 3.96 17.7906 3.86C17.8306 3.86 17.8806 3.85 17.9206 3.84C17.9706 3.84 18.0206 3.82 18.0806 3.81C18.2606 3.77 18.4306 3.71 18.6506 3.66C18.7706 3.63 19.6506 4.91 19.7306 4.85C19.7906 4.81 19.7806 4.56 19.7306 4.28C19.6606 4.01 19.5606 3.69 19.4806 3.48C19.4406 3.37 19.6306 3.24 19.7606 3.14C19.8806 3.05 19.9906 2.96 20.0806 2.85C20.1106 2.81 20.1406 2.77 20.1706 2.73C20.2006 2.69 20.2206 2.64 20.2406 2.59L20.2306 2.61Z" fill="white"/>
</g>
<defs>
<clipPath id="clip0_85_601">
<rect width="32.45" height="57.89" fill="white" transform="matrix(-1 0 0 1 32.4502 0)"/>
</clipPath>
</defs>
</svg>
